<svg viewBox="4.8 332.8 790.4 136" xml:space="preserve" xmlns="http://www.w3.org/2000/svg" style="max-height: 500px" width="790.4" height="136"><path d="M728 801H1V1h800v800zM242.082 428.5v34.123h21.836c0-13.65-.254-26.969.11-40.272.176-6.426.92-12.97 2.482-19.192 1.918-7.643 7.801-11.375 15.66-11.329 7.465.044 11.993 3.502 14.368 11.375.805 2.67 1.333 5.53 1.368 8.31.194 15.33.197 30.662.264 45.993.007 1.748 0 3.497 0 5.183h21.966c0-13.901-.275-27.544.123-41.166.183-6.25 1.095-12.622 2.742-18.648 2.135-7.81 7.711-11.227 15.758-11.045 7.449.168 11.935 3.782 14.083 11.706.734 2.705 1.235 5.561 1.269 8.355.185 15.162.191 30.326.257 45.489.007 1.77 0 3.54 0 5.318h21.359c0-18.736.39-37.223-.221-55.678-.203-6.13-2.318-12.45-4.706-18.207-8.511-20.527-30.93-20.571-42.892-11.5-4.64 3.52-8.078 8.627-12.046 12.992-3.839-11.086-11.278-18.608-24.557-18.5-12.923.105-20.979 7.445-27.647 17.978v-17.61h-21.576zM60.94 443.045c-12.715-2.64-21.625-9.856-26.119-22.12-4.173-11.391-4.762-23.116-2.022-34.883 3.841-16.501 14.138-26.114 30.951-27.993 6.81-.76 14.008-.375 20.733.969 11.39 2.277 19.347 9.1 22.481 20.798.312 1.164 1.561 2.93 2.426 2.96 7.041.24 14.095.135 21.466.135-2.442-12.945-7.66-23.499-16.69-31.984-13.597-12.776-30.307-16.32-48.125-14.78-24.45 2.11-42.981 13.428-52.143 37.142-6.645 17.203-6.728 34.905-1.417 52.397 3.89 12.808 11.71 23.136 23.438 29.977 19.508 11.378 40.269 12.451 61.125 5.152 20.056-7.02 30.081-22.872 34.453-43.614h-23.121c-5.71 16.147-10.497 22.067-22.902 24.65-7.65 1.592-15.77.937-24.534 1.194m528.671-66.196v11.287c-1.43-.407-1.728-.78-1.963-1.19-6.856-11.937-17.73-15.873-30.765-15.304-12.544.548-22.033 6.074-27.026 17.885-7.297 17.263-7.143 35.014-2.075 52.734 3.347 11.701 10.742 19.8 23.272 21.98 13.18 2.293 25.224.445 34.45-10.433 1.345-1.585 2.477-3.35 4.056-5.51l3.76 14.37h19.322v-90.526h-23.031zm-359.72 51.517c1.54-11.937.486-23.462-4.69-34.55-13.084-28.025-55.428-26.077-71.348-12.336-16.173 13.96-20.136 45.205-8.015 64.789 12.971 20.955 42.921 22.199 60.452 14.834 14.083-5.917 20.614-17.597 23.601-32.737m270.854-48.609c-7.375-5.353-15.743-7.702-24.733-8.132-20.488-.98-38.04 9.036-45.148 25.743-8.579 20.168-5.194 42.372 8.493 55.703 13.095 12.755 39.192 16.02 55.602 7.077 12.666-6.903 20.203-17.187 21.902-31.909h-20.703c-.288.81-.532 1.422-.726 2.05-2.964 9.586-10.426 14.943-21.46 15.4-10.156.42-19.204-4.757-22.675-13.22-2.902-7.077-3.745-14.427-2.242-21.997 3.569-17.962 26.69-26.309 40.5-14.308 3.207 2.787 5.006 7.194 7.563 11.021h19.605c-1.104-11.509-6.588-20.212-15.978-27.428m255.338-1.113v-6.714c-17.08-.885-29.553 5.435-37.283 21.067l-1.66-20.998h-20.756v90.622h22.443v-5.24c.014-12.149-.178-24.302.095-36.445.319-14.112 7.146-21.337 21.186-22.91 5.227-.585 10.483-.909 15.975-1.373zM630.62 462.958h17.023v-5.748c0-11.665-.11-23.33.028-34.994.182-15.324 6.855-22.615 22.017-24.253 5.054-.547 10.132-.874 15.097-1.294v-24.742c-17.085-.953-29.48 5.582-37.208 21.236l-1.518-21.168H625.19v90.75c1.576.075 3.018.144 5.43.213M391.388 373.21v89.519h22.355v-90.372c-7.618 0-14.88 0-22.355.853m393.665 88.712c6.368-3.193 6.676-9.06 6.4-15.01-.27-5.829-4.038-10.054-9.2-10.838-8.756-1.33-13.657.894-16.062 7.288-4.334 11.52 2.474 20.57 14.68 19.473 1.149-.103 2.275-.467 4.182-.913M408.37 359.214c5.789-2.775 7.985-9.076 5.771-16.56-1.51-5.102-4.667-7.192-11.018-7.292-6.466-.102-10.279 2.134-11.895 6.976-3.975 11.91 3.238 19.445 17.142 16.876" fill="transparent"/><path d="M242.082 428v-55.825h21.576v17.61c6.668-10.533 14.724-17.873 27.647-17.978 13.279-.108 20.718 7.414 24.557 18.5 3.968-4.365 7.405-9.472 12.046-12.992 11.962-9.071 34.38-9.027 42.892 11.5 2.388 5.758 4.503 12.078 4.706 18.207.612 18.455.22 36.942.22 55.678H354.37c0-1.779.006-3.548-.001-5.318-.066-15.163-.072-30.327-.257-45.489-.034-2.794-.535-5.65-1.269-8.355-2.148-7.924-6.634-11.538-14.083-11.706-8.047-.182-13.623 3.234-15.758 11.045-1.647 6.026-2.56 12.398-2.742 18.648-.398 13.622-.123 27.265-.123 41.166h-21.965c0-1.686.006-3.435-.001-5.183-.067-15.331-.07-30.663-.264-45.993-.035-2.78-.563-5.64-1.368-8.31-2.375-7.873-6.903-11.33-14.367-11.375-7.86-.046-13.743 3.686-15.661 11.329-1.562 6.221-2.306 12.766-2.482 19.192-.364 13.303-.11 26.623-.11 40.272h-21.836z" fill="#050505"/><path d="M61.368 443.094c8.337-.306 16.456.35 24.106-1.244 12.405-2.582 17.192-8.502 22.902-24.649h23.121c-4.372 20.742-14.397 36.595-34.453 43.614-20.856 7.3-41.617 6.226-61.125-5.152-11.728-6.841-19.549-17.169-23.438-29.977-5.311-17.492-5.228-35.194 1.417-52.397 9.162-23.714 27.694-35.031 52.143-37.143 17.818-1.539 34.528 2.005 48.125 14.781 9.03 8.485 14.248 19.04 16.69 31.984-7.371 0-14.425.105-21.466-.136-.865-.03-2.114-1.795-2.426-2.96-3.134-11.698-11.092-18.52-22.481-20.797-6.725-1.344-13.923-1.73-20.733-.969-16.813 1.879-27.11 11.492-30.951 27.993-2.74 11.767-2.151 23.492 2.022 34.882 4.494 12.265 13.404 19.48 26.547 22.17M589.611 376.401v-4.259h23.031v90.527H593.32l-3.759-14.37c-1.58 2.159-2.711 3.924-4.056 5.509-9.226 10.878-21.27 12.726-34.45 10.433-12.53-2.18-19.925-10.279-23.272-21.98-5.068-17.72-5.222-35.471 2.075-52.734 4.993-11.811 14.482-17.337 27.026-17.885 13.035-.569 23.91 3.367 30.765 15.304.235.41.533.783 1.963 1.19zm-8.543 66.307c2.12-3.095 5.005-5.92 6.214-9.337 3.3-9.325 3.057-18.966.422-28.458-2.266-8.165-7.714-12.463-16.154-13.227-10.55-.954-17.553 2.288-21.523 9.948-3.764 7.262-3.68 15.072-3.118 22.897 1.343 18.655 16.711 27.128 34.159 18.177M229.804 428.784c-2.9 14.722-9.43 26.402-23.514 32.319-17.53 7.365-47.481 6.121-60.452-14.834-12.121-19.584-8.158-50.83 8.015-64.79 15.92-13.74 58.264-15.688 71.348 12.338 5.176 11.087 6.23 22.612 4.603 34.967m-30.365 13.298c4.585-3.517 7.572-8.207 7.894-13.874.41-7.212.506-14.537-.295-21.697-.9-8.048-5.615-14.018-13.666-15.998-9.12-2.243-18.3-2.36-25.631 4.968-9.549 9.544-9.245 35.376.335 44.889 6.834 6.786 20.19 7.727 31.363 1.712M501.054 379.938c9.081 7.035 14.565 15.738 15.669 27.247h-19.605c-2.557-3.827-4.356-8.234-7.563-11.02-13.81-12.002-36.931-3.655-40.5 14.307-1.503 7.57-.66 14.92 2.242 21.997 3.47 8.463 12.52 13.64 22.674 13.22 11.035-.457 18.497-5.814 21.461-15.4.194-.628.438-1.24.726-2.05h20.703c-1.699 14.722-9.236 25.006-21.902 31.909-16.41 8.942-42.507 5.678-55.602-7.077-13.687-13.331-17.072-35.535-8.493-55.703 7.107-16.707 24.66-26.723 45.148-25.743 8.99.43 17.358 2.78 25.042 8.313M756.083 379.124v17.529c-5.492.464-10.748.788-15.975 1.373-14.04 1.573-20.867 8.798-21.186 22.91-.273 12.143-.081 24.296-.095 36.445v5.24h-22.443v-90.622h20.756l1.66 20.998c7.73-15.632 20.203-21.952 37.283-21.067zM630.136 462.958a377 377 0 0 1-4.945-.214v-90.75h20.869l1.518 21.17c7.728-15.655 20.123-22.19 37.208-21.237v24.742c-4.965.42-10.043.747-15.097 1.294-15.162 1.638-21.835 8.93-22.017 24.253-.138 11.663-.028 23.329-.028 34.994v5.748z" fill="#040404"/><path d="M391.494 372.785c7.369-.427 14.631-.427 22.249-.427v90.372h-22.355c0-29.83 0-59.674.106-89.945" fill="#070707"/><path d="M784.668 462.025c-1.522.344-2.648.708-3.798.81-12.205 1.098-19.013-7.951-14.68-19.472 2.406-6.394 7.307-8.617 16.063-7.288 5.162.784 8.93 5.01 9.2 10.839.276 5.95-.032 11.816-6.785 15.11" fill="#ff4439"/><path d="M407.967 359.31c-13.502 2.473-20.715-5.062-16.74-16.972 1.616-4.842 5.429-7.078 11.895-6.976 6.351.1 9.509 2.19 11.018 7.293 2.214 7.483.018 13.784-6.173 16.655" fill="#070707"/><path d="M580.742 442.895c-17.122 8.764-32.49.291-33.833-18.364-.563-7.825-.646-15.635 3.118-22.897 3.97-7.66 10.973-10.902 21.523-9.948 8.44.764 13.888 5.062 16.154 13.227 2.635 9.492 2.878 19.133-.422 28.458-1.21 3.417-4.094 6.242-6.54 9.524M199.144 442.31c-10.877 5.787-24.234 4.846-31.068-1.94-9.58-9.513-9.884-35.345-.335-44.889 7.33-7.327 16.512-7.21 25.631-4.968 8.05 1.98 12.767 7.95 13.666 15.998.801 7.16.705 14.485.295 21.697-.322 5.667-3.31 10.357-8.19 14.103" fill="transparent"/></svg>